# xmcd
#
# Track frame offsets:
#	150
#	10302
#	30438
#	47921
#	62096
#	81373
#	96675
#	114069
#	116481
#
# Disc length: 1582 seconds
#
# Revision: 0
# Processed by: cddbd v1.5.2PL0 Copyright (c) Steve Scherf et al.
# Submitted via: EasyCDDAExtractor 10.0.2.1
#
DISCID=6f062c09
DTITLE=Various Artist - Eddie Crook August 1997
DYEAR=1997
DGENRE=Gospel
TTITLE0=The Crabb Family - I'm Running On
TTITLE1=The Bradys - After All
TTITLE2=Melody Trio - There's No One Like You Lord
TTITLE3=Robert Winecoff - Thank You For The Valley
TTITLE4=The Chandlers - He's Looking For Something In Red
TTITLE5=The Encouragers - He's My King
TTITLE6=Marcia Henrey and Latter Rain - Song Of The Redeemed
TTITLE7=Dale Duhl and Laura Lewis - Radio Jingle #1
TTITLE8=Dale Duhl and Laura Lewis - Radio Jingle #2
EXTD=
EXTT0=
EXTT1=
EXTT2=
EXTT3=
EXTT4=
EXTT5=
EXTT6=
EXTT7=
EXTT8=
PLAYORDER=
